<svg xmlns="http://www.w3.org/2000/svg" xmlns:xlink="http://www.w3.org/1999/xlink" width="2048" zoomAndPan="magnify" viewBox="0 0 1536 1535.999932" height="2048" preserveAspectRatio="xMidYMid meet" version="1.0"><defs><clipPath id="bd1e061ef3"><path d="M 1098.222656 1335.691406 L 1216.375 1335.691406 L 1216.375 1536 L 1098.222656 1536 Z M 1098.222656 1335.691406 " clip-rule="nonzero"/></clipPath><clipPath id="b28565f036"><path d="M 1098.222656 1335.691406 L 1334.527344 1335.691406 L 1334.527344 1453.847656 L 1098.222656 1453.847656 Z M 1098.222656 1335.691406 " clip-rule="nonzero"/></clipPath><clipPath id="6f4bff0a3c"><path d="M 1216.375 1217.539062 L 1334.527344 1217.539062 L 1334.527344 1453.847656 L 1216.375 1453.847656 Z M 1216.375 1217.539062 " clip-rule="nonzero"/></clipPath><clipPath id="99b06e1d74"><path d="M 1216.375 1217.539062 L 1452.683594 1217.539062 L 1452.683594 1335.691406 L 1216.375 1335.691406 Z M 1216.375 1217.539062 " clip-rule="nonzero"/></clipPath><clipPath id="2babf8c976"><path d="M 1334.527344 1099.382812 L 1452.683594 1099.382812 L 1452.683594 1335.691406 L 1334.527344 1335.691406 Z M 1334.527344 1099.382812 " clip-rule="nonzero"/></clipPath><clipPath id="3a49788ec5"><path d="M 1334.527344 1099.382812 L 1536 1099.382812 L 1536 1217.539062 L 1334.527344 1217.539062 Z M 1334.527344 1099.382812 " clip-rule="nonzero"/></clipPath><clipPath id="067056859e"><path d="M 1452.683594 1099.382812 L 1536 1099.382812 L 1536 1217.539062 L 1452.683594 1217.539062 Z M 1452.683594 1099.382812 " clip-rule="nonzero"/></clipPath><clipPath id="ba9e5c9d69"><path d="M 980.066406 981.230469 L 1215 981.230469 L 1215 1099.382812 L 980.066406 1099.382812 Z M 980.066406 981.230469 " clip-rule="nonzero"/></clipPath><clipPath id="cd8ab45d51"><path d="M 1454.183594 981.230469 L 1536 981.230469 L 1536 1217.539062 L 1454.183594 1217.539062 Z M 1454.183594 981.230469 " clip-rule="nonzero"/></clipPath><clipPath id="80edf69109"><path d="M 980.066406 1453.847656 L 1216.375 1453.847656 L 1216.375 1536 L 980.066406 1536 Z M 980.066406 1453.847656 " clip-rule="nonzero"/></clipPath><clipPath id="48d19a78f5"><path d="M 1098.222656 863.078125 L 1216.375 863.078125 L 1216.375 1099.382812 L 1098.222656 1099.382812 Z M 1098.222656 863.078125 " clip-rule="nonzero"/></clipPath><clipPath id="10b40bbab9"><path d="M 1099.402344 863.078125 L 1334.527344 863.078125 L 1334.527344 981.230469 L 1099.402344 981.230469 Z M 1099.402344 863.078125 " clip-rule="nonzero"/></clipPath><clipPath id="d72571e7a5"><path d="M 1217.554688 744.921875 L 1335.710938 744.921875 L 1335.710938 981.230469 L 1217.554688 981.230469 Z M 1217.554688 744.921875 " clip-rule="nonzero"/></clipPath><clipPath id="54c4606d04"><path d="M 1335.710938 626.769531 L 1453.863281 626.769531 L 1453.863281 863.078125 L 1335.710938 863.078125 Z M 1335.710938 626.769531 " clip-rule="nonzero"/></clipPath><clipPath id="3ae5acbfcc"><path d="M 1335.710938 626.769531 L 1536 626.769531 L 1536 744.921875 L 1335.710938 744.921875 Z M 1335.710938 626.769531 " clip-rule="nonzero"/></clipPath><clipPath id="59d421a0b1"><path d="M 1453.863281 626.769531 L 1536 626.769531 L 1536 744.921875 L 1453.863281 744.921875 Z M 1453.863281 626.769531 " clip-rule="nonzero"/></clipPath><clipPath id="3b8ae6e4db"><path d="M 506.269531 1453.847656 L 743.757812 1453.847656 L 743.757812 1536 L 506.269531 1536 Z M 506.269531 1453.847656 " clip-rule="nonzero"/></clipPath><clipPath id="3894a3c308"><path d="M 624.425781 1335.691406 L 742.578125 1335.691406 L 742.578125 1536 L 624.425781 1536 Z M 624.425781 1335.691406 " clip-rule="nonzero"/></clipPath><clipPath id="dc48309ac2"><path d="M 625.605469 1335.691406 L 859.550781 1335.691406 L 859.550781 1453.847656 L 625.605469 1453.847656 Z M 625.605469 1335.691406 " clip-rule="nonzero"/></clipPath><clipPath id="6200443357"><path d="M 743.757812 1217.539062 L 861.914062 1217.539062 L 861.914062 1453.847656 L 743.757812 1453.847656 Z M 743.757812 1217.539062 " clip-rule="nonzero"/></clipPath><clipPath id="2a8f5a92c7"><path d="M 743.757812 1217.539062 L 978.886719 1217.539062 L 978.886719 1335.691406 L 743.757812 1335.691406 Z M 743.757812 1217.539062 " clip-rule="nonzero"/></clipPath><clipPath id="7020feb46f"><path d="M 860.730469 1099.382812 L 978.886719 1099.382812 L 978.886719 1335.691406 L 860.730469 1335.691406 Z M 860.730469 1099.382812 " clip-rule="nonzero"/></clipPath><clipPath id="891c2bd484"><path d="M 861.914062 1099.382812 L 1097 1099.382812 L 1097 1217.539062 L 861.914062 1217.539062 Z M 861.914062 1099.382812 " clip-rule="nonzero"/></clipPath><clipPath id="cbaa5d6a3b"><path d="M 980.066406 981.230469 L 1098.222656 981.230469 L 1098.222656 1217.539062 L 980.066406 1217.539062 Z M 980.066406 981.230469 " clip-rule="nonzero"/></clipPath><clipPath id="e29608682f"><path d="M 1217.554688 744.921875 L 1452.683594 744.921875 L 1452.683594 863.078125 L 1217.554688 863.078125 Z M 1217.554688 744.921875 " clip-rule="nonzero"/></clipPath><clipPath id="66e762e076"><path d="M 1453.863281 508.617188 L 1536 508.617188 L 1536 744.921875 L 1453.863281 744.921875 Z M 1453.863281 508.617188 " clip-rule="nonzero"/></clipPath><clipPath id="4bb9dac454"><path d="M 1334.527344 1335.691406 L 1452.683594 1335.691406 L 1452.683594 1536 L 1334.527344 1536 Z M 1334.527344 1335.691406 " clip-rule="nonzero"/></clipPath><clipPath id="00140ade1e"><path d="M 1216.375 1453.847656 L 1452.683594 1453.847656 L 1452.683594 1536 L 1216.375 1536 Z M 1216.375 1453.847656 " clip-rule="nonzero"/></clipPath><clipPath id="103990b1fa"><path d="M 1334.527344 1335.691406 L 1536 1335.691406 L 1536 1453.847656 L 1334.527344 1453.847656 Z M 1334.527344 1335.691406 " clip-rule="nonzero"/></clipPath><clipPath id="9723409000"><path d="M 1452.683594 1335.691406 L 1536 1335.691406 L 1536 1453.847656 L 1452.683594 1453.847656 Z M 1452.683594 1335.691406 " clip-rule="nonzero"/></clipPath><clipPath id="320b1a1e1e"><path d="M 1454.183594 1217.539062 L 1536 1217.539062 L 1536 1453.847656 L 1454.183594 1453.847656 Z M 1454.183594 1217.539062 " clip-rule="nonzero"/></clipPath><clipPath id="51d432276d"><path d="M 1098.222656 1099.382812 L 1216.375 1099.382812 L 1216.375 1217.539062 L 1098.222656 1217.539062 Z M 1098.222656 1099.382812 " clip-rule="nonzero"/></clipPath><clipPath id="3d70de4ba5"><path d="M 861.914062 863.078125 L 1097.628906 863.078125 L 1097.628906 981.230469 L 861.914062 981.230469 Z M 861.914062 863.078125 " clip-rule="nonzero"/></clipPath><clipPath id="8fee72d0ae"><path d="M 1098.222656 1217.539062 L 1216.375 1217.539062 L 1216.375 1335.691406 L 1098.222656 1335.691406 Z M 1098.222656 1217.539062 " clip-rule="nonzero"/></clipPath><clipPath id="43e7a984e9"><path d="M 1216.375 1099.382812 L 1334.527344 1099.382812 L 1334.527344 1217.539062 L 1216.375 1217.539062 Z M 1216.375 1099.382812 " clip-rule="nonzero"/></clipPath><clipPath id="0e5419cf02"><path d="M 1216.375 981.230469 L 1334.527344 981.230469 L 1334.527344 1099.382812 L 1216.375 1099.382812 Z M 1216.375 981.230469 " clip-rule="nonzero"/></clipPath><clipPath id="671d2871b1"><path d="M 1334.527344 981.230469 L 1452.683594 981.230469 L 1452.683594 1099.382812 L 1334.527344 1099.382812 Z M 1334.527344 981.230469 " clip-rule="nonzero"/></clipPath><clipPath id="8676dc2290"><path d="M 980.066406 1217.539062 L 1098.222656 1217.539062 L 1098.222656 1453.847656 L 980.066406 1453.847656 Z M 980.066406 1217.539062 " clip-rule="nonzero"/></clipPath><clipPath id="d24e7f6ab6"><path d="M 861.914062 1335.691406 L 980.066406 1335.691406 L 980.066406 1536 L 861.914062 1536 Z M 861.914062 1335.691406 " clip-rule="nonzero"/></clipPath><clipPath id="e81c6bc426"><path d="M 1334.527344 863.078125 L 1536 863.078125 L 1536 981.230469 L 1334.527344 981.230469 Z M 1334.527344 863.078125 " clip-rule="nonzero"/></clipPath><clipPath id="5d02d2bcf0"><path d="M 861.914062 1335.691406 L 1098.222656 1335.691406 L 1098.222656 1453.847656 L 861.914062 1453.847656 Z M 861.914062 1335.691406 " clip-rule="nonzero"/></clipPath><clipPath id="5c56ad464e"><path d="M 980.066406 1217.539062 L 1216.375 1217.539062 L 1216.375 1335.691406 L 980.066406 1335.691406 Z M 980.066406 1217.539062 " clip-rule="nonzero"/></clipPath><clipPath id="cc61bf778f"><path d="M 1098.222656 1099.382812 L 1334.527344 1099.382812 L 1334.527344 1217.539062 L 1098.222656 1217.539062 Z M 1098.222656 1099.382812 " clip-rule="nonzero"/></clipPath><clipPath id="c3fe488675"><path d="M 1216.375 981.230469 L 1452.683594 981.230469 L 1452.683594 1099.382812 L 1216.375 1099.382812 Z M 1216.375 981.230469 " clip-rule="nonzero"/></clipPath><clipPath id="722403449b"><path d="M 1335.710938 863.078125 L 1453.863281 863.078125 L 1453.863281 1099.382812 L 1335.710938 1099.382812 Z M 1335.710938 863.078125 " clip-rule="nonzero"/></clipPath><clipPath id="8df8b685cc"><path d="M 1453.863281 744.921875 L 1536 744.921875 L 1536 981.230469 L 1453.863281 981.230469 Z M 1453.863281 744.921875 " clip-rule="nonzero"/></clipPath><clipPath id="375a08bfe1"><path d="M 743.757812 1453.847656 L 980.066406 1453.847656 L 980.066406 1536 L 743.757812 1536 Z M 743.757812 1453.847656 " clip-rule="nonzero"/></clipPath><clipPath id="e72c916aa5"><path d="M 980.066406 744.921875 L 1098.222656 744.921875 L 1098.222656 981.230469 L 980.066406 981.230469 Z M 980.066406 744.921875 " clip-rule="nonzero"/></clipPath><clipPath id="1c18622d81"><path d="M 863.09375 863.078125 L 981.25 863.078125 L 981.25 1099.382812 L 863.09375 1099.382812 Z M 863.09375 863.078125 " clip-rule="nonzero"/></clipPath><clipPath id="3cfd363cf2"><path d="M 744.941406 981.230469 L 978.886719 981.230469 L 978.886719 1099.382812 L 744.941406 1099.382812 Z M 744.941406 981.230469 " clip-rule="nonzero"/></clipPath><clipPath id="22510efa0d"><path d="M 744.941406 981.230469 L 863.09375 981.230469 L 863.09375 1217.539062 L 744.941406 1217.539062 Z M 744.941406 981.230469 " clip-rule="nonzero"/></clipPath><clipPath id="f624bfa883"><path d="M 626.785156 1099.382812 L 863.09375 1099.382812 L 863.09375 1217.539062 L 626.785156 1217.539062 Z M 626.785156 1099.382812 " clip-rule="nonzero"/></clipPath><clipPath id="908898a03c"><path d="M 625.605469 1099.382812 L 743.757812 1099.382812 L 743.757812 1335.691406 L 625.605469 1335.691406 Z M 625.605469 1099.382812 " clip-rule="nonzero"/></clipPath><clipPath id="6fc7a32c47"><path d="M 507.453125 1217.539062 L 744.941406 1217.539062 L 744.941406 1335.691406 L 507.453125 1335.691406 Z M 507.453125 1217.539062 " clip-rule="nonzero"/></clipPath><clipPath id="0f384399de"><path d="M 508.632812 1217.539062 L 626.785156 1217.539062 L 626.785156 1453.847656 L 508.632812 1453.847656 Z M 508.632812 1217.539062 " clip-rule="nonzero"/></clipPath><clipPath id="f70f95ee7c"><path d="M 390.480469 1335.691406 L 623.242188 1335.691406 L 623.242188 1453.847656 L 390.480469 1453.847656 Z M 390.480469 1335.691406 " clip-rule="nonzero"/></clipPath><clipPath id="3dc41e77c7"><path d="M 390.480469 1346.351562 L 508.632812 1346.351562 L 508.632812 1536 L 390.480469 1536 Z M 390.480469 1346.351562 " clip-rule="nonzero"/></clipPath><clipPath id="a2d3dd79c3"><path d="M 272.324219 1453.847656 L 507.453125 1453.847656 L 507.453125 1536 L 272.324219 1536 Z M 272.324219 1453.847656 " clip-rule="nonzero"/></clipPath><clipPath id="05a5b435f6"><path d="M 1214.601562 508.617188 L 1332.757812 508.617188 L 1332.757812 626.769531 L 1214.601562 626.769531 Z M 1214.601562 508.617188 " clip-rule="nonzero"/></clipPath><clipPath id="6dcde52cf5"><path d="M 1215.785156 508.617188 L 1333.9375 508.617188 L 1333.9375 744.921875 L 1215.785156 744.921875 Z M 1215.785156 508.617188 " clip-rule="nonzero"/></clipPath><clipPath id="9cf45b1530"><path d="M 1097.628906 626.769531 L 1332.757812 626.769531 L 1332.757812 744.921875 L 1097.628906 744.921875 Z M 1097.628906 626.769531 " clip-rule="nonzero"/></clipPath><clipPath id="7cb6021a67"><path d="M 1097.628906 626.769531 L 1215.785156 626.769531 L 1215.785156 863.078125 L 1097.628906 863.078125 Z M 1097.628906 626.769531 " clip-rule="nonzero"/></clipPath><clipPath id="5e8ef98017"><path d="M 979.476562 744.921875 L 1215.191406 744.921875 L 1215.191406 863.078125 L 979.476562 863.078125 Z M 979.476562 744.921875 " clip-rule="nonzero"/></clipPath><clipPath id="c4e7c83015"><path d="M 1454.183594 272.308594 L 1536 272.308594 L 1536 508.617188 L 1454.183594 508.617188 Z M 1454.183594 272.308594 " clip-rule="nonzero"/></clipPath><clipPath id="27f2383526"><path d="M 1453.863281 390.460938 L 1536 390.460938 L 1536 508.617188 L 1453.863281 508.617188 Z M 1453.863281 390.460938 " clip-rule="nonzero"/></clipPath><clipPath id="53ace089db"><path d="M 1335.710938 390.460938 L 1536 390.460938 L 1536 508.617188 L 1335.710938 508.617188 Z M 1335.710938 390.460938 " clip-rule="nonzero"/></clipPath><clipPath id="6937ac3357"><path d="M 1335.710938 390.460938 L 1453.863281 390.460938 L 1453.863281 626.769531 L 1335.710938 626.769531 Z M 1335.710938 390.460938 " clip-rule="nonzero"/></clipPath><clipPath id="826811ba66"><path d="M 1217.554688 508.617188 L 1452.683594 508.617188 L 1452.683594 626.769531 L 1217.554688 626.769531 Z M 1217.554688 508.617188 " clip-rule="nonzero"/></clipPath><clipPath id="e5567a67c5"><path d="M 81 108 L 1536 108 L 1536 1536 L 81 1536 Z M 81 108 " clip-rule="nonzero"/></clipPath><clipPath id="429d07c266"><path d="M 1543.9375 108.054688 L 1662.972656 227.085938 L 200.140625 1689.917969 L 81.105469 1570.886719 Z M 1543.9375 108.054688 " clip-rule="nonzero"/></clipPath><clipPath id="a9c7760f02"><path d="M 921 863 L 1536 863 L 1536 1536 L 921 1536 Z M 921 863 " clip-rule="nonzero"/></clipPath><clipPath id="28302119c8"><path d="M 1805.242188 863.078125 L 1888.789062 946.625 L 1004.53125 1830.882812 L 920.984375 1747.335938 Z M 1805.242188 863.078125 " clip-rule="nonzero"/></clipPath><clipPath id="8407eb7bcc"><path d="M 836 826 L 1536 826 L 1536 1536 L 836 1536 Z M 836 826 " clip-rule="nonzero"/></clipPath><clipPath id="03de4bb159"><path d="M 1607.722656 826.289062 L 1691.269531 909.835938 L 920.324219 1680.78125 L 836.777344 1597.234375 Z M 1607.722656 826.289062 " clip-rule="nonzero"/></clipPath><clipPath id="cbe57305a4"><path d="M 600 599 L 1536 599 L 1536 1536 L 600 1536 Z M 600 599 " clip-rule="nonzero"/></clipPath><clipPath id="472a531d8a"><path d="M 1598.210938 599.640625 L 1681.757812 683.1875 L 684.164062 1680.78125 L 600.617188 1597.234375 Z M 1598.210938 599.640625 " clip-rule="nonzero"/></clipPath><clipPath id="363e49b782"><path d="M 353 294 L 1536 294 L 1536 1536 L 353 1536 Z M 353 294 " clip-rule="nonzero"/></clipPath><clipPath id="07ed025d06"><path d="M 1665.0625 294.675781 L 1748.609375 378.222656 L 436.917969 1689.917969 L 353.371094 1606.371094 Z M 1665.0625 294.675781 " clip-rule="nonzero"/></clipPath><clipPath id="71a6326ff9"><path d="M 1536.425781 0 L 1594.722656 58.292969 L -154.121094 1807.136719 L -212.414062 1748.84375 Z M 1536.425781 0 " clip-rule="nonzero"/></clipPath><clipPath id="befddce8ed"><path d="M 1101 1354 L 1536 1354 L 1536 1536 L 1101 1536 Z M 1101 1354 " clip-rule="nonzero"/></clipPath><clipPath id="c7bfa12b4a"><path d="M 1551.28125 1354.351562 L 1634.828125 1437.902344 L 1185.503906 1887.222656 L 1101.957031 1803.675781 Z M 1551.28125 1354.351562 " clip-rule="nonzero"/></clipPath><clipPath id="2e24789ff7"><path d="M 266 415 L 1536 415 L 1536 1536 L 266 1536 Z M 266 415 " clip-rule="nonzero"/></clipPath><clipPath id="ce904c8d94"><path d="M 1729.363281 415.84375 L 1812.910156 499.390625 L 350.078125 1962.226562 L 266.53125 1878.675781 Z M 1729.363281 415.84375 " clip-rule="nonzero"/></clipPath><clipPath id="7b6d15cc75"><path d="M 0 272 L 1536 272 L 1536 1536 L 0 1536 Z M 0 272 " clip-rule="nonzero"/></clipPath><clipPath id="beaa55d9ca"><path d="M 1686.367188 272.304688 L 1744.660156 330.601562 L -4.179688 2079.445312 L -62.476562 2021.148438 Z M 1686.367188 272.304688 " clip-rule="nonzero"/></clipPath><clipPath id="3d3d7381b6"><path d="M 482 668 L 1536 668 L 1536 1536 L 482 1536 Z M 482 668 " clip-rule="nonzero"/></clipPath><clipPath id="d3afd13596"><path d="M 1945.4375 668.898438 L 2028.984375 752.449219 L 566.152344 2215.28125 L 482.605469 2131.730469 Z M 1945.4375 668.898438 " clip-rule="nonzero"/></clipPath><clipPath id="1f01d05ee5"><path d="M 153 525 L 1536 525 L 1536 1536 L 153 1536 Z M 153 525 " clip-rule="nonzero"/></clipPath><clipPath id="d5d873f817"><path d="M 1902.441406 525.363281 L 1960.734375 583.65625 L 211.890625 2332.5 L 153.597656 2274.203125 Z M 1902.441406 525.363281 " clip-rule="nonzero"/></clipPath></defs><g clip-path="url(#bd1e061ef3)"><path fill="#ffffff" d="M 1098.222656 1335.691406 L 1216.375 1335.691406 L 1216.375 1572 L 1098.222656 1572 Z M 1098.222656 1335.691406 " fill-opacity="1" fill-rule="nonzero"/></g><g clip-path="url(#b28565f036)"><path fill="#ffffff" d="M 1098.222656 1335.691406 L 1334.527344 1335.691406 L 1334.527344 1453.847656 L 1098.222656 1453.847656 Z M 1098.222656 1335.691406 " fill-opacity="1" fill-rule="nonzero"/></g><g clip-path="url(#6f4bff0a3c)"><path fill="#ffffff" d="M 1216.375 1217.539062 L 1334.527344 1217.539062 L 1334.527344 1453.847656 L 1216.375 1453.847656 Z M 1216.375 1217.539062 " fill-opacity="1" fill-rule="nonzero"/></g><g clip-path="url(#99b06e1d74)"><path fill="#ffffff" d="M 1216.375 1217.539062 L 1452.683594 1217.539062 L 1452.683594 1335.691406 L 1216.375 1335.691406 Z M 1216.375 1217.539062 " fill-opacity="1" fill-rule="nonzero"/></g><g clip-path="url(#2babf8c976)"><path fill="#ffffff" d="M 1334.527344 1099.382812 L 1452.683594 1099.382812 L 1452.683594 1335.691406 L 1334.527344 1335.691406 Z M 1334.527344 1099.382812 " fill-opacity="1" fill-rule="nonzero"/></g><g clip-path="url(#3a49788ec5)"><path fill="#ffffff" d="M 1334.527344 1099.382812 L 1570.835938 1099.382812 L 1570.835938 1217.539062 L 1334.527344 1217.539062 Z M 1334.527344 1099.382812 " fill-opacity="1" fill-rule="nonzero"/></g><g clip-path="url(#067056859e)"><path fill="#ffffff" d="M 1452.683594 1099.382812 L 1570.835938 1099.382812 L 1570.835938 1217.539062 L 1452.683594 1217.539062 Z M 1452.683594 1099.382812 " fill-opacity="1" fill-rule="nonzero"/></g><g clip-path="url(#ba9e5c9d69)"><path fill="#ffffff" d="M 980.066406 981.230469 L 1214.988281 981.230469 L 1214.988281 1099.382812 L 980.066406 1099.382812 Z M 980.066406 981.230469 " fill-opacity="1" fill-rule="nonzero"/></g><g clip-path="url(#cd8ab45d51)"><path fill="#ffffff" d="M 1454.183594 981.230469 L 1572.335938 981.230469 L 1572.335938 1217.539062 L 1454.183594 1217.539062 Z M 1454.183594 981.230469 " fill-opacity="1" fill-rule="nonzero"/></g><g clip-path="url(#80edf69109)"><path fill="#ffffff" d="M 980.066406 1453.847656 L 1216.375 1453.847656 L 1216.375 1572 L 980.066406 1572 Z M 980.066406 1453.847656 " fill-opacity="1" fill-rule="nonzero"/></g><g clip-path="url(#48d19a78f5)"><path fill="#ffffff" d="M 1098.222656 863.078125 L 1216.375 863.078125 L 1216.375 1099.382812 L 1098.222656 1099.382812 Z M 1098.222656 863.078125 " fill-opacity="1" fill-rule="nonzero"/></g><g clip-path="url(#10b40bbab9)"><path fill="#ffffff" d="M 1099.402344 863.078125 L 1334.324219 863.078125 L 1334.324219 981.230469 L 1099.402344 981.230469 Z M 1099.402344 863.078125 " fill-opacity="1" fill-rule="nonzero"/></g><g clip-path="url(#d72571e7a5)"><path fill="#ffffff" d="M 1217.554688 744.921875 L 1335.710938 744.921875 L 1335.710938 981.230469 L 1217.554688 981.230469 Z M 1217.554688 744.921875 " fill-opacity="1" fill-rule="nonzero"/></g><g clip-path="url(#54c4606d04)"><path fill="#ffffff" d="M 1335.710938 626.769531 L 1453.863281 626.769531 L 1453.863281 863.078125 L 1335.710938 863.078125 Z M 1335.710938 626.769531 " fill-opacity="1" fill-rule="nonzero"/></g><g clip-path="url(#3ae5acbfcc)"><path fill="#ffffff" d="M 1335.710938 626.769531 L 1570.632812 626.769531 L 1570.632812 744.921875 L 1335.710938 744.921875 Z M 1335.710938 626.769531 " fill-opacity="1" fill-rule="nonzero"/></g><g clip-path="url(#59d421a0b1)"><path fill="#ffffff" d="M 1453.863281 626.769531 L 1572.019531 626.769531 L 1572.019531 744.921875 L 1453.863281 744.921875 Z M 1453.863281 626.769531 " fill-opacity="1" fill-rule="nonzero"/></g><g clip-path="url(#3b8ae6e4db)"><path fill="#ffffff" d="M 506.269531 1453.847656 L 743.960938 1453.847656 L 743.960938 1572 L 506.269531 1572 Z M 506.269531 1453.847656 " fill-opacity="1" fill-rule="nonzero"/></g><g clip-path="url(#3894a3c308)"><path fill="#ffffff" d="M 624.425781 1335.691406 L 742.578125 1335.691406 L 742.578125 1572 L 624.425781 1572 Z M 624.425781 1335.691406 " fill-opacity="1" fill-rule="nonzero"/></g><g clip-path="url(#dc48309ac2)"><path fill="#ffffff" d="M 625.605469 1335.691406 L 859.605469 1335.691406 L 859.605469 1453.847656 L 625.605469 1453.847656 Z M 625.605469 1335.691406 " fill-opacity="1" fill-rule="nonzero"/></g><g clip-path="url(#6200443357)"><path fill="#ffffff" d="M 743.757812 1217.539062 L 861.914062 1217.539062 L 861.914062 1453.847656 L 743.757812 1453.847656 Z M 743.757812 1217.539062 " fill-opacity="1" fill-rule="nonzero"/></g><g clip-path="url(#2a8f5a92c7)"><path fill="#ffffff" d="M 743.757812 1217.539062 L 978.683594 1217.539062 L 978.683594 1335.691406 L 743.757812 1335.691406 Z M 743.757812 1217.539062 " fill-opacity="1" fill-rule="nonzero"/></g><g clip-path="url(#7020feb46f)"><path fill="#ffffff" d="M 860.730469 1099.382812 L 978.886719 1099.382812 L 978.886719 1335.691406 L 860.730469 1335.691406 Z M 860.730469 1099.382812 " fill-opacity="1" fill-rule="nonzero"/></g><g clip-path="url(#891c2bd484)"><path fill="#ffffff" d="M 861.914062 1099.382812 L 1096.835938 1099.382812 L 1096.835938 1217.539062 L 861.914062 1217.539062 Z M 861.914062 1099.382812 " fill-opacity="1" fill-rule="nonzero"/></g><g clip-path="url(#cbaa5d6a3b)"><path fill="#ffffff" d="M 980.066406 981.230469 L 1098.222656 981.230469 L 1098.222656 1217.539062 L 980.066406 1217.539062 Z M 980.066406 981.230469 " fill-opacity="1" fill-rule="nonzero"/></g><g clip-path="url(#e29608682f)"><path fill="#ffffff" d="M 1217.554688 744.921875 L 1452.480469 744.921875 L 1452.480469 863.078125 L 1217.554688 863.078125 Z M 1217.554688 744.921875 " fill-opacity="1" fill-rule="nonzero"/></g><g clip-path="url(#66e762e076)"><path fill="#ffffff" d="M 1453.863281 508.617188 L 1572.019531 508.617188 L 1572.019531 744.921875 L 1453.863281 744.921875 Z M 1453.863281 508.617188 " fill-opacity="1" fill-rule="nonzero"/></g><g clip-path="url(#4bb9dac454)"><path fill="#878787" d="M 1334.527344 1335.691406 L 1452.683594 1335.691406 L 1452.683594 1572 L 1334.527344 1572 Z M 1334.527344 1335.691406 " fill-opacity="1" fill-rule="nonzero"/></g><g clip-path="url(#00140ade1e)"><path fill="#878787" d="M 1216.375 1453.847656 L 1452.683594 1453.847656 L 1452.683594 1572 L 1216.375 1572 Z M 1216.375 1453.847656 " fill-opacity="1" fill-rule="nonzero"/></g><g clip-path="url(#103990b1fa)"><path fill="#878787" d="M 1334.527344 1335.691406 L 1570.835938 1335.691406 L 1570.835938 1453.847656 L 1334.527344 1453.847656 Z M 1334.527344 1335.691406 " fill-opacity="1" fill-rule="nonzero"/></g><g clip-path="url(#9723409000)"><path fill="#878787" d="M 1452.683594 1335.691406 L 1570.835938 1335.691406 L 1570.835938 1453.847656 L 1452.683594 1453.847656 Z M 1452.683594 1335.691406 " fill-opacity="1" fill-rule="nonzero"/></g><g clip-path="url(#320b1a1e1e)"><path fill="#878787" d="M 1454.183594 1217.539062 L 1572.335938 1217.539062 L 1572.335938 1453.847656 L 1454.183594 1453.847656 Z M 1454.183594 1217.539062 " fill-opacity="1" fill-rule="nonzero"/></g><g clip-path="url(#51d432276d)"><path fill="#878787" d="M 1098.222656 1099.382812 L 1216.375 1099.382812 L 1216.375 1217.539062 L 1098.222656 1217.539062 Z M 1098.222656 1099.382812 " fill-opacity="1" fill-rule="nonzero"/></g><g clip-path="url(#3d70de4ba5)"><path fill="#878787" d="M 861.914062 863.078125 L 1097.757812 863.078125 L 1097.757812 981.230469 L 861.914062 981.230469 Z M 861.914062 863.078125 " fill-opacity="1" fill-rule="nonzero"/></g><g clip-path="url(#8fee72d0ae)"><path fill="#878787" d="M 1098.222656 1217.539062 L 1216.375 1217.539062 L 1216.375 1335.691406 L 1098.222656 1335.691406 Z M 1098.222656 1217.539062 " fill-opacity="1" fill-rule="nonzero"/></g><g clip-path="url(#43e7a984e9)"><path fill="#878787" d="M 1216.375 1099.382812 L 1334.527344 1099.382812 L 1334.527344 1217.539062 L 1216.375 1217.539062 Z M 1216.375 1099.382812 " fill-opacity="1" fill-rule="nonzero"/></g><g clip-path="url(#0e5419cf02)"><path fill="#878787" d="M 1216.375 981.230469 L 1334.527344 981.230469 L 1334.527344 1099.382812 L 1216.375 1099.382812 Z M 1216.375 981.230469 " fill-opacity="1" fill-rule="nonzero"/></g><g clip-path="url(#671d2871b1)"><path fill="#878787" d="M 1334.527344 981.230469 L 1452.683594 981.230469 L 1452.683594 1099.382812 L 1334.527344 1099.382812 Z M 1334.527344 981.230469 " fill-opacity="1" fill-rule="nonzero"/></g><g clip-path="url(#8676dc2290)"><path fill="#878787" d="M 980.066406 1217.539062 L 1098.222656 1217.539062 L 1098.222656 1453.847656 L 980.066406 1453.847656 Z M 980.066406 1217.539062 " fill-opacity="1" fill-rule="nonzero"/></g><g clip-path="url(#d24e7f6ab6)"><path fill="#878787" d="M 861.914062 1335.691406 L 980.066406 1335.691406 L 980.066406 1572 L 861.914062 1572 Z M 861.914062 1335.691406 " fill-opacity="1" fill-rule="nonzero"/></g><g clip-path="url(#e81c6bc426)"><path fill="#878787" d="M 1334.527344 863.078125 L 1570.835938 863.078125 L 1570.835938 981.230469 L 1334.527344 981.230469 Z M 1334.527344 863.078125 " fill-opacity="1" fill-rule="nonzero"/></g><g clip-path="url(#5d02d2bcf0)"><path fill="#878787" d="M 861.914062 1335.691406 L 1098.222656 1335.691406 L 1098.222656 1453.847656 L 861.914062 1453.847656 Z M 861.914062 1335.691406 " fill-opacity="1" fill-rule="nonzero"/></g><g clip-path="url(#5c56ad464e)"><path fill="#878787" d="M 980.066406 1217.539062 L 1216.375 1217.539062 L 1216.375 1335.691406 L 980.066406 1335.691406 Z M 980.066406 1217.539062 " fill-opacity="1" fill-rule="nonzero"/></g><g clip-path="url(#cc61bf778f)"><path fill="#878787" d="M 1098.222656 1099.382812 L 1334.527344 1099.382812 L 1334.527344 1217.539062 L 1098.222656 1217.539062 Z M 1098.222656 1099.382812 " fill-opacity="1" fill-rule="nonzero"/></g><g clip-path="url(#c3fe488675)"><path fill="#878787" d="M 1216.375 981.230469 L 1452.683594 981.230469 L 1452.683594 1099.382812 L 1216.375 1099.382812 Z M 1216.375 981.230469 " fill-opacity="1" fill-rule="nonzero"/></g><g clip-path="url(#722403449b)"><path fill="#878787" d="M 1335.710938 863.078125 L 1453.863281 863.078125 L 1453.863281 1099.382812 L 1335.710938 1099.382812 Z M 1335.710938 863.078125 " fill-opacity="1" fill-rule="nonzero"/></g><g clip-path="url(#8df8b685cc)"><path fill="#878787" d="M 1453.863281 744.921875 L 1572.019531 744.921875 L 1572.019531 981.230469 L 1453.863281 981.230469 Z M 1453.863281 744.921875 " fill-opacity="1" fill-rule="nonzero"/></g><g clip-path="url(#375a08bfe1)"><path fill="#878787" d="M 743.757812 1453.847656 L 980.066406 1453.847656 L 980.066406 1572 L 743.757812 1572 Z M 743.757812 1453.847656 " fill-opacity="1" fill-rule="nonzero"/></g><g clip-path="url(#e72c916aa5)"><path fill="#878787" d="M 980.066406 744.921875 L 1098.222656 744.921875 L 1098.222656 981.230469 L 980.066406 981.230469 Z M 980.066406 744.921875 " fill-opacity="1" fill-rule="nonzero"/></g><g clip-path="url(#1c18622d81)"><path fill="#878787" d="M 863.09375 863.078125 L 981.25 863.078125 L 981.25 1099.382812 L 863.09375 1099.382812 Z M 863.09375 863.078125 " fill-opacity="1" fill-rule="nonzero"/></g><g clip-path="url(#3cfd363cf2)"><path fill="#878787" d="M 744.941406 981.230469 L 978.941406 981.230469 L 978.941406 1099.382812 L 744.941406 1099.382812 Z M 744.941406 981.230469 " fill-opacity="1" fill-rule="nonzero"/></g><g clip-path="url(#22510efa0d)"><path fill="#878787" d="M 744.941406 981.230469 L 863.09375 981.230469 L 863.09375 1217.539062 L 744.941406 1217.539062 Z M 744.941406 981.230469 " fill-opacity="1" fill-rule="nonzero"/></g><g clip-path="url(#f624bfa883)"><path fill="#878787" d="M 626.785156 1099.382812 L 863.09375 1099.382812 L 863.09375 1217.539062 L 626.785156 1217.539062 Z M 626.785156 1099.382812 " fill-opacity="1" fill-rule="nonzero"/></g><g clip-path="url(#908898a03c)"><path fill="#878787" d="M 625.605469 1099.382812 L 743.757812 1099.382812 L 743.757812 1335.691406 L 625.605469 1335.691406 Z M 625.605469 1099.382812 " fill-opacity="1" fill-rule="nonzero"/></g><g clip-path="url(#6fc7a32c47)"><path fill="#878787" d="M 507.453125 1217.539062 L 745.144531 1217.539062 L 745.144531 1335.691406 L 507.453125 1335.691406 Z M 507.453125 1217.539062 " fill-opacity="1" fill-rule="nonzero"/></g><g clip-path="url(#0f384399de)"><path fill="#878787" d="M 508.632812 1217.539062 L 626.785156 1217.539062 L 626.785156 1453.847656 L 508.632812 1453.847656 Z M 508.632812 1217.539062 " fill-opacity="1" fill-rule="nonzero"/></g><g clip-path="url(#f70f95ee7c)"><path fill="#878787" d="M 390.480469 1335.691406 L 623.09375 1335.691406 L 623.09375 1453.847656 L 390.480469 1453.847656 Z M 390.480469 1335.691406 " fill-opacity="1" fill-rule="nonzero"/></g><g clip-path="url(#3dc41e77c7)"><path fill="#878787" d="M 390.480469 1346.351562 L 508.632812 1346.351562 L 508.632812 1572.042969 L 390.480469 1572.042969 Z M 390.480469 1346.351562 " fill-opacity="1" fill-rule="nonzero"/></g><g clip-path="url(#a2d3dd79c3)"><path fill="#878787" d="M 272.324219 1453.847656 L 507.25 1453.847656 L 507.25 1572 L 272.324219 1572 Z M 272.324219 1453.847656 " fill-opacity="1" fill-rule="nonzero"/></g><g clip-path="url(#05a5b435f6)"><path fill="#878787" d="M 1214.601562 508.617188 L 1332.757812 508.617188 L 1332.757812 626.769531 L 1214.601562 626.769531 Z M 1214.601562 508.617188 " fill-opacity="1" fill-rule="nonzero"/></g><g clip-path="url(#6dcde52cf5)"><path fill="#878787" d="M 1215.785156 508.617188 L 1333.9375 508.617188 L 1333.9375 744.921875 L 1215.785156 744.921875 Z M 1215.785156 508.617188 " fill-opacity="1" fill-rule="nonzero"/></g><g clip-path="url(#9cf45b1530)"><path fill="#878787" d="M 1097.628906 626.769531 L 1332.554688 626.769531 L 1332.554688 744.921875 L 1097.628906 744.921875 Z M 1097.628906 626.769531 " fill-opacity="1" fill-rule="nonzero"/></g><g clip-path="url(#7cb6021a67)"><path fill="#878787" d="M 1097.628906 626.769531 L 1215.785156 626.769531 L 1215.785156 863.078125 L 1097.628906 863.078125 Z M 1097.628906 626.769531 " fill-opacity="1" fill-rule="nonzero"/></g><g clip-path="url(#5e8ef98017)"><path fill="#878787" d="M 979.476562 744.921875 L 1215.324219 744.921875 L 1215.324219 863.078125 L 979.476562 863.078125 Z M 979.476562 744.921875 " fill-opacity="1" fill-rule="nonzero"/></g><g clip-path="url(#c4e7c83015)"><path fill="#878787" d="M 1454.183594 272.308594 L 1572.335938 272.308594 L 1572.335938 508.617188 L 1454.183594 508.617188 Z M 1454.183594 272.308594 " fill-opacity="1" fill-rule="nonzero"/></g><g clip-path="url(#27f2383526)"><path fill="#878787" d="M 1453.863281 390.460938 L 1572.019531 390.460938 L 1572.019531 508.617188 L 1453.863281 508.617188 Z M 1453.863281 390.460938 " fill-opacity="1" fill-rule="nonzero"/></g><g clip-path="url(#53ace089db)"><path fill="#878787" d="M 1335.710938 390.460938 L 1570.632812 390.460938 L 1570.632812 508.617188 L 1335.710938 508.617188 Z M 1335.710938 390.460938 " fill-opacity="1" fill-rule="nonzero"/></g><g clip-path="url(#6937ac3357)"><path fill="#878787" d="M 1335.710938 390.460938 L 1453.863281 390.460938 L 1453.863281 626.769531 L 1335.710938 626.769531 Z M 1335.710938 390.460938 " fill-opacity="1" fill-rule="nonzero"/></g><g clip-path="url(#826811ba66)"><path fill="#878787" d="M 1217.554688 508.617188 L 1452.480469 508.617188 L 1452.480469 626.769531 L 1217.554688 626.769531 Z M 1217.554688 508.617188 " fill-opacity="1" fill-rule="nonzero"/></g><g clip-path="url(#e5567a67c5)"><g clip-path="url(#429d07c266)"><path fill="#878787" d="M 1543.9375 108.054688 L 1662.972656 227.085938 L 200.171875 1689.886719 L 81.140625 1570.851562 Z M 1543.9375 108.054688 " fill-opacity="1" fill-rule="nonzero"/></g></g><g clip-path="url(#a9c7760f02)"><g clip-path="url(#28302119c8)"><path fill="#878787" d="M 1805.242188 863.078125 L 1888.789062 946.625 L 1004.691406 1830.726562 L 921.140625 1747.179688 Z M 1805.242188 863.078125 " fill-opacity="1" fill-rule="nonzero"/></g></g><g clip-path="url(#8407eb7bcc)"><g clip-path="url(#03de4bb159)"><path fill="#ffffff" d="M 1607.722656 826.289062 L 1691.269531 909.835938 L 920.414062 1680.691406 L 836.867188 1597.144531 Z M 1607.722656 826.289062 " fill-opacity="1" fill-rule="nonzero"/></g></g><g clip-path="url(#cbe57305a4)"><g clip-path="url(#472a531d8a)"><path fill="#878787" d="M 1598.210938 599.640625 L 1681.757812 683.1875 L 684.082031 1680.863281 L 600.535156 1597.3125 Z M 1598.210938 599.640625 " fill-opacity="1" fill-rule="nonzero"/></g></g><g clip-path="url(#363e49b782)"><g clip-path="url(#07ed025d06)"><path fill="#ffffff" d="M 1665.0625 294.675781 L 1748.609375 378.222656 L 436.984375 1689.851562 L 353.433594 1606.304688 Z M 1665.0625 294.675781 " fill-opacity="1" fill-rule="nonzero"/></g></g><g clip-path="url(#71a6326ff9)"><path fill="#ffffff" d="M 1536.425781 0 L 1594.722656 58.292969 L -154.125 1807.140625 L -212.421875 1748.847656 Z M 1536.425781 0 " fill-opacity="1" fill-rule="nonzero"/></g><g clip-path="url(#befddce8ed)"><g clip-path="url(#c7bfa12b4a)"><path fill="#ffffff" d="M 1551.28125 1354.351562 L 1634.828125 1437.902344 L 1185.433594 1887.292969 L 1101.886719 1803.746094 Z M 1551.28125 1354.351562 " fill-opacity="1" fill-rule="nonzero"/></g></g><g clip-path="url(#2e24789ff7)"><g clip-path="url(#ce904c8d94)"><path fill="#878787" d="M 1729.363281 415.84375 L 1812.910156 499.390625 L 350.179688 1962.125 L 266.632812 1878.578125 Z M 1729.363281 415.84375 " fill-opacity="1" fill-rule="nonzero"/></g></g><g clip-path="url(#7b6d15cc75)"><g clip-path="url(#beaa55d9ca)"><path fill="#ffffff" d="M 1686.367188 272.304688 L 1744.660156 330.601562 L -4.1875 2079.449219 L -62.480469 2021.15625 Z M 1686.367188 272.304688 " fill-opacity="1" fill-rule="nonzero"/></g></g><g clip-path="url(#3d3d7381b6)"><g clip-path="url(#d3afd13596)"><path fill="#878787" d="M 1945.4375 668.898438 L 2028.984375 752.449219 L 566.253906 2215.179688 L 482.707031 2131.632812 Z M 1945.4375 668.898438 " fill-opacity="1" fill-rule="nonzero"/></g></g><g clip-path="url(#1f01d05ee5)"><g clip-path="url(#d5d873f817)"><path fill="#ffffff" d="M 1902.441406 525.363281 L 1960.734375 583.65625 L 211.886719 2332.503906 L 153.59375 2274.210938 Z M 1902.441406 525.363281 " fill-opacity="1" fill-rule="nonzero"/></g></g></svg>